<?xml version="1.0" encoding="UTF-8" standalone="no"?>
<!-- Created with Inkscape (http://www.inkscape.org/) -->

<svg
   width="48"
   height="48"
   viewBox="0 0 12.7 12.7"
   version="1.1"
   id="svg1"
   xml:space="preserve"
   sodipodi:docname="logos-nudi-purple.svg"
   inkscape:version="1.4.2 (f4327f4, 2025-05-13)"
   xmlns:inkscape="http://www.inkscape.org/namespaces/inkscape"
   xmlns:sodipodi="http://sodipodi.sourceforge.net/DTD/sodipodi-0.dtd"
   xmlns="http://www.w3.org/2000/svg"
   xmlns:svg="http://www.w3.org/2000/svg"><sodipodi:namedview
     id="namedview1"
     pagecolor="#ffffff"
     bordercolor="#000000"
     borderopacity="0.25"
     inkscape:showpageshadow="2"
     inkscape:pageopacity="0.0"
     inkscape:pagecheckerboard="0"
     inkscape:deskcolor="#d1d1d1"
     inkscape:document-units="mm"
     showgrid="true"
     inkscape:zoom="5.656854"
     inkscape:cx="62.578953"
     inkscape:cy="13.876971"
     inkscape:window-width="1920"
     inkscape:window-height="991"
     inkscape:window-x="-9"
     inkscape:window-y="-9"
     inkscape:window-maximized="1"
     inkscape:current-layer="layer1"
     showguides="true"><inkscape:grid
       id="grid1"
       units="mm"
       originx="0"
       originy="0"
       spacingx="1"
       spacingy="1"
       empcolor="#0099e5"
       empopacity="0.30196078"
       color="#0099e5"
       opacity="0.14901961"
       empspacing="5"
       enabled="true"
       visible="false" /></sodipodi:namedview><defs
     id="defs1"><linearGradient
       id="linearGradient32"
       inkscape:swatch="gradient"><stop
         style="stop-color:#d48d00;stop-opacity:1;"
         offset="0"
         id="stop33" /><stop
         style="stop-color:#d48d00;stop-opacity:0;"
         offset="1"
         id="stop34" /></linearGradient><linearGradient
       id="linearGradient16"><stop
         style="stop-color:#d48d00;stop-opacity:1;"
         offset="0"
         id="stop19" /><stop
         style="stop-color:#2200d4;stop-opacity:0;"
         offset="1"
         id="stop20" /></linearGradient><linearGradient
       id="linearGradient16-1"><stop
         style="stop-color:#00d4aa;stop-opacity:1;"
         offset="0"
         id="stop17" /><stop
         style="stop-color:#d48d00;stop-opacity:0;"
         offset="1"
         id="stop18" /></linearGradient><inkscape:path-effect
       effect="fill_between_many"
       method="originald"
       linkedpaths="#path3203-1-7,0,1"
       id="path-effect31"
       is_visible="true"
       lpeversion="0"
       join="true"
       close="true"
       autoreverse="true" /><inkscape:path-effect
       effect="fill_between_many"
       method="originald"
       linkedpaths="#path3203-1-7-2,0,1"
       id="path-effect31-2"
       is_visible="true"
       lpeversion="0"
       join="true"
       close="true"
       autoreverse="true" /></defs><g
     inkscape:label="Capa 1"
     inkscape:groupmode="layer"
     id="layer1"><path
       id="path6-8-5-60"
       style="baseline-shift:baseline;display:inline;overflow:visible;fill:#407495;fill-opacity:1;fill-rule:nonzero;stroke:#b1cfaa;stroke-width:0;stroke-linecap:square;stroke-dasharray:none;stroke-opacity:1;enable-background:accumulate;stop-color:#000000"
       d="M 9.1627482 6.4709229 L 9.1627482 6.9933716 C 9.1627482 7.318394 8.911559 7.5695638 8.588623 7.5695638 L 8.0661743 7.5695638 L 8.0661743 8.6139445 L 8.588623 8.6139445 C 9.0088797 8.6139445 9.3936435 8.4496589 9.6826131 8.1829631 C 9.7698422 8.2638262 9.8667194 8.3360101 9.9720011 8.3969035 C 10.472218 8.6862171 11.091325 8.6862171 11.591541 8.3969035 C 12.091758 8.1075856 12.400793 7.5712586 12.400793 6.9933716 L 12.400793 6.4709229 L 11.356413 6.4709229 L 11.356413 6.9933716 C 11.356413 7.2004661 11.246961 7.3899097 11.068575 7.4930827 C 10.890189 7.5962598 10.673352 7.5962598 10.494967 7.4930827 C 10.31658 7.3899097 10.207129 7.2004662 10.207129 6.9933716 L 10.207129 6.4709229 L 9.1627482 6.4709229 z M 0.77876383 6.7887329 A 0.47936418 0.47936418 0 0 0 0.29920654 7.2682902 A 0.47936418 0.47936418 0 0 0 0.77876383 7.7478475 A 0.47936418 0.47936418 0 0 0 1.2578044 7.2682902 A 0.47936418 0.47936418 0 0 0 0.77876383 6.7887329 z "
       inkscape:label="azules" /><path
       id="path3204-5-6"
       style="baseline-shift:baseline;display:inline;overflow:visible;fill:#30a96d;fill-opacity:1;fill-rule:nonzero;stroke:#156f00;stroke-width:0;stroke-linecap:square;stroke-dasharray:none;stroke-opacity:0.334004;enable-background:accumulate;stop-color:#000000"
       d="M 11.877038,4.8723918 A 0.47936418,0.47936418 0 0 0 11.397696,5.3519433 0.47936418,0.47936418 0 0 0 11.877038,5.831285 0.47936418,0.47936418 0 0 0 12.356376,5.3519433 0.47936418,0.47936418 0 0 0 11.877038,4.8723918 Z"
       inkscape:label="punto" /><path
       id="path3203-1-6"
       style="baseline-shift:baseline;display:inline;overflow:visible;fill:#8248a4;fill-opacity:1;fill-rule:nonzero;stroke:#156f00;stroke-width:0;stroke-linecap:square;stroke-dasharray:none;stroke-opacity:0.334004;enable-background:accumulate;stop-color:#000000"
       d="m 8.5868442,3.6426501 c -0.8888087,1.22e-5 -1.62125,0.7315852 -1.62125,1.6203979 v 0.5222777 h 2.139e-4 v 2.14e-4 0.081623 1.0477475 h -2.139e-4 v 0.5220637 c 0,0.2066297 -0.10887,0.395794 -0.2878164,0.4991068 -0.1789464,0.1033128 -0.3968964,0.1033128 -0.5758428,0 C 5.9229886,7.8327674 5.813481,7.6436032 5.813481,7.4369735 V 6.9151195 6.9149097 5.9356098 5.4133321 c 0,-0.888821 -0.7317951,-1.6203981 -1.620612,-1.6203981 -0.8888209,0 -1.6204021,0.7315771 -1.6204021,1.6203981 v 0.2370115 0.2852662 0.2368017 c 0,0.3243108 -0.2517458,0.5760566 -0.5760566,0.5760566 H 1.4741326 v 1.0445554 h 0.5222777 c 0.888821,0 1.6204021,-0.731791 1.6204021,-1.6206119 V 5.9356098 5.6503436 5.4133321 c 0,-0.3243149 0.2517417,-0.5760566 0.5760566,-0.5760566 0.3243108,0 0.5760566,0.2517417 0.5760566,0.5760566 v 0.5222777 h 2.098e-4 v 0.9792999 h -2.098e-4 v 0.5220638 c 0,0.5781297 0.3100537,1.1145124 0.8107318,1.4035793 0.5006739,0.2890628 1.1197241,0.2890628 1.6203984,0 C 7.7007339,8.5514859 8.0099361,8.0151032 8.0099361,7.4369735 v -0.521854 h 4.113e-4 V 5.8671623 h 4.114e-4 V 5.7853257 5.6135696 5.263048 c 0,-0.3243107 0.2517458,-0.5760566 0.5760607,-0.5760566 0.3243108,0 0.5760566,0.2517459 0.5760566,0.5760566 V 5.7853257 H 10.207217 V 5.263048 c 0,-0.8888127 -0.731593,-1.6203856 -1.6203975,-1.6203979 z"
       inkscape:label="curva" /></g></svg>
