<?xml version="1.0" encoding="UTF-8" standalone="no"?>
<!-- Created with Inkscape (http://www.inkscape.org/) -->

<svg
   width="48"
   height="48"
   viewBox="0 0 12.7 12.7"
   version="1.1"
   id="svg1"
   xml:space="preserve"
   sodipodi:docname="logo nudi.svg"
   inkscape:version="1.4.2 (f4327f4, 2025-05-13)"
   xmlns:inkscape="http://www.inkscape.org/namespaces/inkscape"
   xmlns:sodipodi="http://sodipodi.sourceforge.net/DTD/sodipodi-0.dtd"
   xmlns="http://www.w3.org/2000/svg"
   xmlns:svg="http://www.w3.org/2000/svg"><sodipodi:namedview
     id="namedview1"
     pagecolor="#ffffff"
     bordercolor="#000000"
     borderopacity="0.25"
     inkscape:showpageshadow="2"
     inkscape:pageopacity="0.0"
     inkscape:pagecheckerboard="0"
     inkscape:deskcolor="#d1d1d1"
     inkscape:document-units="mm"
     showgrid="true"
     inkscape:zoom="11.313708"
     inkscape:cx="30.361397"
     inkscape:cy="24.085825"
     inkscape:window-width="1920"
     inkscape:window-height="991"
     inkscape:window-x="-9"
     inkscape:window-y="-9"
     inkscape:window-maximized="1"
     inkscape:current-layer="layer1"><inkscape:grid
       id="grid1"
       units="mm"
       originx="0"
       originy="0"
       spacingx="1"
       spacingy="1"
       empcolor="#0099e5"
       empopacity="0.30196078"
       color="#0099e5"
       opacity="0.14901961"
       empspacing="5"
       enabled="true"
       visible="true" /></sodipodi:namedview><defs
     id="defs1"><linearGradient
       id="linearGradient32"
       inkscape:swatch="gradient"><stop
         style="stop-color:#d48d00;stop-opacity:1;"
         offset="0"
         id="stop33" /><stop
         style="stop-color:#d48d00;stop-opacity:0;"
         offset="1"
         id="stop34" /></linearGradient><linearGradient
       id="linearGradient16"><stop
         style="stop-color:#d48d00;stop-opacity:1;"
         offset="0"
         id="stop19" /><stop
         style="stop-color:#2200d4;stop-opacity:0;"
         offset="1"
         id="stop20" /></linearGradient><linearGradient
       id="linearGradient16-1"><stop
         style="stop-color:#00d4aa;stop-opacity:1;"
         offset="0"
         id="stop17" /><stop
         style="stop-color:#d48d00;stop-opacity:0;"
         offset="1"
         id="stop18" /></linearGradient></defs><g
     inkscape:label="Capa 1"
     inkscape:groupmode="layer"
     id="layer1"><path
       id="path6-8-1-3"
       style="baseline-shift:baseline;display:inline;overflow:visible;fill:#b1cfaa;fill-opacity:1;fill-rule:nonzero;stroke:#b1cfaa;stroke-width:0;stroke-linecap:square;stroke-dasharray:none;stroke-opacity:1;enable-background:accumulate;stop-color:#000000"
       d="M 0.59593965,6.8032588 A 0.49508943,0.49508943 0 0 0 0.10087735,7.2983204 0.49508943,0.49508943 0 0 0 0.59593965,7.7936041 0.49508943,0.49508943 0 0 0 1.0910055,7.2983204 0.49508943,0.49508943 0 0 0 0.59593965,6.8032588 Z" /><path
       id="path3204-1-1"
       style="baseline-shift:baseline;display:inline;overflow:visible;fill:#d48d00;fill-opacity:1;fill-rule:nonzero;stroke:#156f00;stroke-width:0;stroke-linecap:square;stroke-dasharray:none;stroke-opacity:0.334004;enable-background:accumulate;stop-color:#000000"
       d="M 12.058376,4.8239257 A 0.49508943,0.49508943 0 0 0 11.563315,5.319207 0.49508943,0.49508943 0 0 0 12.058376,5.814275 0.49508943,0.49508943 0 0 0 12.553442,5.319207 0.49508943,0.49508943 0 0 0 12.058376,4.8239257 Z" /><path
       id="path3203-3-9"
       style="baseline-shift:baseline;display:inline;overflow:visible;fill:#d48d00;fill-opacity:1;fill-rule:nonzero;stroke:#156f00;stroke-width:0;stroke-linecap:square;stroke-dasharray:none;stroke-opacity:0.334004;enable-background:accumulate;stop-color:#000000"
       d="m 8.6602538,3.5538422 c -0.9179653,1.2e-5 -1.6744336,0.7555835 -1.6744336,1.6735542 v 0.5394103 h 2.21e-4 v 2.226e-4 0.084298 1.0821179 h -2.21e-4 v 0.5391902 c 0,0.2134237 -0.1124395,0.4087777 -0.2972586,0.5154807 -0.1848156,0.1067087 -0.4099206,0.1067087 -0.5947375,0 C 5.9090087,7.8814061 5.7959068,7.6860451 5.7959068,7.4726364 V 6.933662 6.9334451 5.9220213 5.3826111 c 0,-0.9179798 -0.7557969,-1.6735543 -1.673775,-1.6735543 -0.9179783,0 -1.6735544,0.7555745 -1.6735544,1.6735543 v 0.2447721 0.2946231 0.2445616 c 0,0.33495 -0.2600041,0.5949538 -0.5949535,0.5949538 H 1.3142133 v 1.0788184 h 0.5394106 c 0.917974,0 1.6735541,-0.7557947 1.6735541,-1.6737722 V 5.9220065 5.6273834 5.3826114 c 0,-0.3349552 0.2600044,-0.5949534 0.5949538,-0.5949534 0.3349497,0 0.5949539,0.2599952 0.5949539,0.5949534 v 0.5394101 h 2.207e-4 v 1.0114236 h -2.207e-4 v 0.5391913 c 0,0.5970954 0.3202288,1.1510711 0.837327,1.4496211 0.5171026,0.2985337 1.1564602,0.2985337 1.6735586,0 0.5170981,-0.298565 0.836448,-0.8525257 0.836448,-1.4496211 V 6.933662 H 8.064844 V 5.8513277 h 4.247e-4 V 5.7668193 5.5894377 5.227418 c 0,-0.3349491 0.2600043,-0.5949533 0.5949538,-0.5949533 0.3349539,0 0.594954,0.2599951 0.594954,0.5949533 V 5.7668278 H 10.333781 V 5.2274175 c 0,-0.9179707 -0.7555929,-1.6735422 -1.6735585,-1.6735544 z" /><path
       style="fill:none;fill-opacity:1;fill-rule:nonzero;stroke:#b1cfaa;stroke-width:1.07866;stroke-linecap:square;stroke-linejoin:miter;stroke-dasharray:none;stroke-opacity:1;paint-order:normal"
       id="path3205-87-8"
       sodipodi:type="arc"
       sodipodi:cx="8.6619482"
       sodipodi:cy="7.0144348"
       sodipodi:rx="1.1326141"
       sodipodi:ry="1.1346353"
       sodipodi:start="0"
       sodipodi:end="1.5707963"
       sodipodi:arc-type="arc"
       d="M 9.7945623,7.0144348 A 1.1326141,1.1346353 0 0 1 8.6619482,8.1490701"
       sodipodi:open="true" /><path
       style="fill:none;fill-opacity:1;fill-rule:nonzero;stroke:#b1cfaa;stroke-width:1.07866;stroke-linecap:square;stroke-linejoin:miter;stroke-dasharray:none;stroke-opacity:1;paint-order:normal"
       id="path3205-8-4-6"
       sodipodi:type="arc"
       sodipodi:cx="-10.927178"
       sodipodi:cy="7.0144348"
       sodipodi:rx="1.1326141"
       sodipodi:ry="1.1346353"
       sodipodi:start="0"
       sodipodi:end="3.1415927"
       sodipodi:arc-type="arc"
       d="m -9.7945642,7.0144348 a 1.1326141,1.1346353 0 0 1 -0.5663068,0.982623 1.1326141,1.1346353 0 0 1 -1.132614,0 1.1326141,1.1346353 0 0 1 -0.566308,-0.982623"
       sodipodi:open="true"
       transform="scale(-1,1)" /></g></svg>
